<?xml version="1.0" encoding="UTF-8"?>
<svg width="512px" height="334px" viewBox="0 0 512 334" version="1.1" xmlns="http://www.w3.org/2000/svg" xmlns:xlink="http://www.w3.org/1999/xlink">
    <!-- Generator: Sketch 59.1 (86144) - https://sketch.com -->
    <title>Artboard Copy 3</title>
    <desc>Created with Sketch.</desc>
    <defs>
        <linearGradient x1="16.11856%" y1="58.4899245%" x2="100%" y2="40.5702334%" id="linearGradient-1">
            <stop stop-color="#FB8CFD" offset="0%"></stop>
            <stop stop-color="#C47BFF" offset="16.11856%"></stop>
            <stop stop-color="#8B77FF" offset="31.3766892%"></stop>
            <stop stop-color="#7EAAE0" offset="44.7925465%"></stop>
            <stop stop-color="#61FFFE" offset="70.0696791%"></stop>
            <stop stop-color="#99FF7F" offset="100%"></stop>
        </linearGradient>
    </defs>
    <g id="Artboard-Copy-3" stroke="none" stroke-width="1" fill="none" fill-rule="evenodd">
        <path d="M300.059986,66.5949526 C324.066915,72.3974791 345.475001,83.6053262 364.661278,98.9812437 C378.602222,110.15383 390.570987,123.17555 400.80788,137.975881 C405.912344,145.354787 410.278276,153.091489 415.002597,160.652923 C417.620085,164.841735 417.636658,168.770237 415.219081,173.222471 C397.999804,204.94606 375.061829,230.955276 343.572221,249.486026 C316.209273,265.587908 286.919722,272.760432 258.860711,273 C208.958574,272.745913 168.730887,256.713516 134.965608,224.498345 C119.463701,209.708384 107.157262,192.562152 96.903796,173.808427 C94.3059888,169.056474 94.4033548,165.047079 96.9721594,160.292015 C117.628249,122.055491 146.555267,92.405047 186.745665,75.0876943 C223.379097,59.3031627 261.397405,57.2497217 300.059986,66.5949526 Z M256.028811,72.3922937 C246.613313,72.5167446 237.370796,73.1690751 228.153138,74.7485654 C173.074031,84.1892087 134.719086,116.182442 107.828466,163.782865 C106.478808,166.170249 106.631072,168.15939 107.866791,170.541589 C113.822689,182.014932 120.956301,192.771644 129.40021,202.450818 C170.535265,249.60218 222.291498,269.260248 284.0785,259.358099 C338.941122,250.565638 377.223561,218.143049 403.894589,170.577888 C405.30536,168.061904 405.279465,165.926533 403.831405,163.394992 C371.068788,106.099839 323.059073,73.7363641 256.028811,72.3922937 Z M256.128506,100.000091 C291.604715,100.05935 322.658893,127.981324 323,166.827527 C323,204.240211 292.977389,233.43481 256.842668,233.992233 C220.419396,234.554845 190.469953,204.482072 190.005181,167.271804 C189.547623,130.745598 219.453784,99.9389383 256.128506,100.000091 Z M256.493316,111.141355 C226.245017,111.152778 200.962873,136.654066 201.062539,167.049666 C201.163827,197.549069 226.324369,222.883233 256.509804,222.879081 C286.726156,222.874929 311.887728,197.52208 311.948632,167.020601 C312.00727,136.598012 286.73234,111.128904 256.493316,111.141355 Z M257.72491,144.313898 C255.087768,151.195 256.70777,157.248792 261.763581,162.334102 C266.960575,167.56266 273.301464,168.466785 279.734071,165.426394 C284.212782,163.309851 284.621904,164.960319 284.295225,168.767813 C283.062703,183.093668 270.521078,194.931364 256.503724,194.930326 C242.257592,194.929288 229.586119,182.754232 228.717377,168.23219 C227.864093,153.972769 239.492663,140.384954 253.748071,138.982575 C259.418081,138.424115 259.775677,138.960777 257.72491,144.313898 Z" id="Combined-Shape" fill="url(#linearGradient-1)"></path>
    </g>
</svg>