<?xml version="1.0" encoding="UTF-8"?>
<svg width="512px" height="334px" viewBox="0 0 512 334" version="1.1" xmlns="http://www.w3.org/2000/svg" xmlns:xlink="http://www.w3.org/1999/xlink">
    <!-- Generator: Sketch 59.1 (86144) - https://sketch.com -->
    <title>Artboard Copy 2</title>
    <desc>Created with Sketch.</desc>
    <defs>
        <polygon id="path-1" points="0 0 268 0 268 279 0 279"></polygon>
        <linearGradient x1="18.7375477%" y1="69.5859143%" x2="96.1350702%" y2="28.2459077%" id="linearGradient-3">
            <stop stop-color="#FB8CFD" offset="0%"></stop>
            <stop stop-color="#C47BFF" offset="16.11856%"></stop>
            <stop stop-color="#8B77FF" offset="31.3766892%"></stop>
            <stop stop-color="#7EAAE0" offset="44.7925465%"></stop>
            <stop stop-color="#61FFFE" offset="70.0696791%"></stop>
            <stop stop-color="#99FF7F" offset="100%"></stop>
        </linearGradient>
    </defs>
    <g id="Artboard-Copy-2" stroke="none" stroke-width="1" fill="none" fill-rule="evenodd">
        <g id="Group-3" transform="translate(122.000000, 28.000000)">
            <mask id="mask-2" fill="white">
                <use xlink:href="#path-1"></use>
            </mask>
            <g id="Clip-2"></g>
            <path d="M250.570007,110.352399 C248.24115,113.751074 245.152762,116.634798 242.413424,119.755121 C212.518053,137.093652 181.318635,133.313635 149.954465,125.180197 C147.095054,124.439781 144.75782,121.689666 142.177648,119.872029 C139.745473,102.753396 132.490833,86.5867264 134.356152,68.5161305 C136.048343,52.1406969 139.438309,36.7895976 150.052199,24.0049016 C160.451074,11.4846397 175.825996,8.17225386 188.791081,14.621664 C201.862278,21.123961 207.285107,34.8049496 203.470697,51.2611053 C202.415172,55.820507 197.578745,60.1321757 202.767013,65.1981776 C208.064185,70.3699532 212.297454,65.1926106 216.692682,63.8787903 C230.344697,59.7953701 241.528235,63.6115726 250.254466,74.1583206 C258.709835,84.3738299 258.58697,98.6477078 250.570007,110.352399 M136.866514,138.140255 C131.535834,142.630068 125.998517,146.713489 131.237048,155.083526 C132.354006,156.864977 129.341012,161.424379 126.336396,159.567773 C116.616073,153.560942 113.156297,162.136959 108.375718,166.740897 C92.0094967,182.501174 76.3134498,198.962896 59.6651966,214.414202 C50.5424453,222.884446 47.3674933,229.85159 59.3999192,238.026781 C61.5584398,239.493695 63.4572677,242.08515 64.3033631,244.556914 C65.5683176,248.250641 63.9626911,250.850447 60.3521256,250.772508 C46.9430494,238.499979 35.9773181,245.979291 49.3556779,260.807089 C50.0342296,261.558639 48.7106349,264.328239 47.6495251,265.572471 C45.9238256,267.590521 43.3492383,267.512583 41.4392408,265.839689 C37.6080762,262.482766 34.1008293,258.75842 30.3310974,255.326343 C28.0971821,253.294375 26.1648455,249.661885 22.2722482,252.595712 C19.0833342,254.997888 15.6179732,257.216351 12.8562955,252.76829 C9.7846621,247.827547 14.5931646,245.199906 17.3157488,242.452574 C33.6456691,225.979718 50.1403406,209.671088 66.5679947,193.292871 C78.3491051,181.554778 90.1525547,169.836169 101.861063,158.02292 C105.95192,153.897747 111.307732,150.604846 106.920881,142.855533 C104.837755,139.17294 108.406434,132.553735 112.857511,135.593336 C121.245862,141.324599 124.457115,135.543233 128.751817,131.187028 C131.672661,128.228149 133.923331,128.152994 136.788327,131.189811 C139.139523,133.683843 139.603061,135.838286 136.866514,138.140255 M228.462623,31.6595748 C233.114752,31.8933903 235.720055,35.0721673 236.247818,39.7234251 C234.533288,43.5424112 233.29905,47.8345952 227.892975,47.3864489 C222.972777,46.9800553 220.38702,44.0796301 220.554563,39.2196085 C220.722107,34.3345352 223.704384,31.4174088 228.462623,31.6595748 M248.914117,58.0556716 C244.446287,54.5150373 243.013789,52.5220388 245.881577,47.2778917 C250.218165,39.3504338 247.947949,31.83772 241.751627,25.7557341 C235.530173,19.6514802 228.021425,17.8421938 220.04914,22.0564393 C215.670666,24.3723259 213.615464,24.2053149 210.205951,19.7711714 C188.743611,-8.15864352 153.679519,-6.34100657 135.864045,24.23315 C124.736355,43.3308639 120.106565,64.22673 124.504586,86.8650781 C126.56258,97.4591459 130.150807,108.70734 124.635829,119.615945 C121.689853,121.884512 118.85278,123.646479 114.622304,123.382045 C103.91068,122.716784 95.3631619,127.432063 95.4413489,138.529947 C95.505574,147.389883 91.132685,152.01609 85.8773994,157.243535 C59.5702552,183.40025 33.3440905,209.64047 7.05090834,235.816668 C1.37955607,241.461642 -1.83728185,248.011259 1.11986342,255.841294 C4.04070758,263.579472 10.3961964,267.440211 18.628174,266.86959 C23.2579633,266.552269 26.3826522,268.021966 29.8284664,270.852804 C44.2735208,282.724506 49.8220077,281.897801 60.9524903,266.555053 C62.3431025,264.637209 63.806317,263.295554 65.7665776,261.956682 C80.0022024,252.228288 81.2587797,246.107333 70.8180184,232.824387 C66.2608313,227.023537 65.4761686,224.150946 71.9936163,218.553293 C85.3272978,207.099118 97.2759518,194.033287 109.741199,181.579829 C114.960183,176.366301 119.511785,171.648239 128.511671,172.071333 C136.79112,172.461026 143.275059,167.158425 143.531959,157.324257 C143.881008,144.038528 149.987974,138.716443 162.925135,140.369852 C170.283094,141.307898 177.587997,142.947389 184.968294,143.356567 C209.016391,144.684304 232.304958,142.730275 251.371424,125.466899 C274.294187,104.184124 273.556995,77.5709131 248.914117,58.0556716" id="Fill-1" fill="url(#linearGradient-3)" mask="url(#mask-2)"></path>
        </g>
    </g>
</svg>