<?xml version="1.0" encoding="UTF-8"?>
<svg width="512px" height="334px" viewBox="0 0 512 334" version="1.1" xmlns="http://www.w3.org/2000/svg" xmlns:xlink="http://www.w3.org/1999/xlink">
    <!-- Generator: Sketch 59.1 (86144) - https://sketch.com -->
    <title>Artboard</title>
    <desc>Created with Sketch.</desc>
    <defs>
        <polygon id="path-1" points="6.26224256e-05 0.07 236.823997 0.07 236.823997 279.999637 6.26224256e-05 279.999637"></polygon>
        <linearGradient x1="25.7498165%" y1="69.5859143%" x2="85.7868253%" y2="28.2459077%" id="linearGradient-3">
            <stop stop-color="#FB8CFD" offset="0%"></stop>
            <stop stop-color="#C47BFF" offset="16.11856%"></stop>
            <stop stop-color="#8B77FF" offset="31.3766892%"></stop>
            <stop stop-color="#7EAAE0" offset="44.7925465%"></stop>
            <stop stop-color="#61FFFE" offset="70.0696791%"></stop>
            <stop stop-color="#99FF7F" offset="100%"></stop>
        </linearGradient>
    </defs>
    <g id="Artboard" stroke="none" stroke-width="1" fill="none" fill-rule="evenodd">
        <g id="Group-8" transform="translate(139.000000, 24.000000)">
            <g id="Group-5" transform="translate(0.000000, 0.930000)">
                <mask id="mask-2" fill="white">
                    <use xlink:href="#path-1"></use>
                </mask>
                <g id="Clip-4"></g>
                <path d="M43.0526,157.9207 C43.1286,172.3757 43.1106,186.8317 43.3356,201.2847 C43.4096,206.0097 40.1416,204.5877 37.8436,204.5797 C35.5656,204.5727 32.2986,206.0567 32.3696,201.3027 C32.5836,186.8467 32.5326,172.3867 32.5846,157.9287 L32.5846,157.9287 Z M118.505596,75.4738897 C133.1486,75.5452 145.2416,87.5302 145.3446,102.0732 C145.4486,116.9892 133.4836,129.0482 118.5406,129.086295 C103.5486,129.1252 91.5136,117.2052 91.5055961,102.3102 C91.4976,87.5252 103.6936,75.4032 118.505596,75.4738897 Z M102.6866,102.3422 C102.6006,110.9182 109.9416,118.3702 118.4546,118.347253 C126.8196,118.3242 134.0226,111.1962 134.1596,102.8052 C134.3026,94.1312 127.2336,86.7002 118.6596,86.5122 C110.1656,86.3252 102.7746,93.6502 102.6866,102.3422 Z M95.9023,6.7817 C112.6123,-3.0653 128.8513,-2.0193 144.6243,9.5377 C154.7953,16.9887 161.7813,26.8657 167.4393,37.7597 C173.7393,49.8887 178.4963,62.6757 180.6763,76.2337 C182.3013,86.3377 183.5913,96.5157 183.0343,106.7997 C182.8643,109.9557 183.8253,112.1057 186.2823,114.4307 C195.7083,123.3547 204.7343,132.7007 213.9153,141.8837 L213.9153,141.8837 L229.3053,157.5347 C235.8063,164.0157 237.0013,172.2217 236.8043,180.9477 C236.6093,189.6007 236.8543,198.2627 236.7393,206.9187 C236.5583,220.5757 228.3803,226.7167 217.8433,226.0617 C211.0423,225.6387 204.1933,226.0727 197.3703,225.9377 C194.7413,225.8847 193.5993,226.4117 193.4893,229.4417 C193.0463,241.6527 187.9483,246.8787 175.8093,247.5727 C172.8693,247.7397 172.3223,248.7907 172.2223,251.4387 C171.7823,262.9397 165.3943,268.9437 153.8713,268.9767 C150.5413,268.9867 147.2003,269.1527 143.8843,268.9397 C138.1743,268.5747 133.7653,269.1267 129.5953,274.6407 C123.3233,282.9337 110.6713,281.2117 104.9793,272.1617 C103.4133,269.6717 101.8653,268.8357 99.0903,268.9237 C93.2693,269.1057 87.4373,269.0277 81.6113,268.9667 C71.7343,268.8647 64.7533,262.3377 64.6933,252.5467 C64.6693,248.5757 63.4863,247.6467 59.6543,247.5087 C49.5213,247.1457 43.3353,240.6767 43.3903,230.5627 C43.4093,226.7457 42.2903,225.7527 38.6003,225.8977 C31.2853,226.1837 23.9503,226.0597 16.6263,225.9587 C7.3413,225.8317 0.4123,219.3347 0.1913,210.0177 C-0.0867,198.3707 -0.0417,186.7077 0.1983,175.0587 C0.3673,166.8187 3.8373,159.9747 10.3543,154.7857 C23.5973,141.4397 36.7673,128.0217 50.1403,114.8087 C52.8593,112.1237 53.9683,109.4167 53.8563,105.6287 C53.0553,78.6657 59.7083,53.5837 73.4753,30.4167 C79.1483,20.8697 86.2733,12.4557 95.9023,6.7817 Z M118.4883,183.113222 C114.1693,183.0687 113.1623,186.2097 113.1693,189.9887 C113.2083,213.8907 113.2103,237.7927 113.164251,261.6947 C113.1573,265.3967 113.9003,268.7457 118.2233,268.8257 C122.8203,268.9117 123.7153,265.5037 123.6923,261.5707 C123.6213,249.7437 123.6663,237.9187 123.6653,226.0937 C123.6653,214.1017 123.6303,202.1087 123.6873,190.1167 C123.7043,186.3787 122.8173,183.1587 118.4883,183.113222 Z M161.4413,250.3507 C161.3943,246.2307 158.3083,247.7797 156.3963,247.7247 C150.2783,247.5487 144.1513,247.6317 138.0283,247.6847 C136.6543,247.6977 135.1183,247.2677 134.5173,249.4217 C132.8233,255.4787 134.7093,258.1267 140.9813,258.1307 L140.9813,258.1307 L146.4433,258.1307 L146.4433,258.0737 C149.7523,258.0737 153.0873,258.3357 156.3643,258.0117 C160.9353,257.5577 161.4863,254.1267 161.4413,250.3507 Z M89.2163,247.6657 C85.5733,247.6657 81.9303,247.6367 78.2873,247.6847 C77.2023,247.6987 76.0663,247.4767 75.4953,249.0407 C73.9473,253.2847 76.6133,257.9067 81.1403,258.0587 C87.2603,258.2617 93.3923,258.1347 99.5193,258.1057 C100.6143,258.1007 101.7243,258.2597 102.2963,256.7167 C104.2983,251.3307 101.8803,247.6637 96.1713,247.6597 C93.8533,247.6577 91.5343,247.6587 89.2163,247.6657 Z M102.3343,231.2927 C102.2813,227.1877 101.2383,226.0047 97.0823,226.0967 C84.3103,226.3767 71.5293,226.1927 58.7513,226.2027 C53.8403,226.2067 52.6913,227.8737 54.4133,232.4697 C55.5503,235.5037 57.7963,236.7207 60.9893,236.6797 C67.1283,236.5997 73.2693,236.6557 79.4093,236.6597 C85.2183,236.6597 91.0493,236.3377 96.8253,236.7637 C101.2973,237.0937 102.3903,235.6547 102.3343,231.2927 Z M182.9063,228.6217 C182.8333,224.4937 179.5203,226.3547 177.6613,226.2867 C171.3593,226.0567 165.0433,226.1987 158.7323,226.1987 C152.0893,226.1987 145.4273,226.5067 138.8103,226.0917 C134.2843,225.8087 134.5373,228.3317 134.6833,231.2717 C134.8123,233.8967 133.6593,236.8777 138.5133,236.7597 C150.9613,236.4567 163.4213,236.6597 175.8773,236.6487 C176.7023,236.6487 177.5633,236.6697 178.3463,236.4567 C182.4083,235.3577 182.9643,232.0557 182.9063,228.6217 Z M142.1073,21.3367 C127.7693,7.6517 109.6973,7.5967 95.1223,20.9767 C92.4393,23.4407 89.8843,26.1467 87.7463,29.0867 C72.7123,49.7717 65.3153,73.1207 64.6683,98.5257 C64.1893,117.3297 64.4523,136.1537 64.3843,154.9687 C64.5113,155.9507 64.7433,156.9317 64.7463,157.9137 C64.7743,168.2357 64.9003,178.5597 64.6933,188.8767 C64.6163,192.6367 65.9373,193.8867 69.5993,193.6757 C73.9123,193.4277 78.2613,193.7987 82.5773,193.5757 C87.9823,193.2967 85.9523,197.2197 86.2533,199.7597 C86.5893,202.5877 86.5633,205.0347 82.3573,204.7327 C77.7203,204.3987 73.0343,204.7987 68.3803,204.6267 C63.4623,204.4457 64.9893,207.9867 64.7823,210.5037 C64.5623,213.1777 64.6363,215.3027 68.5383,215.2067 C78.6873,214.9587 88.8463,215.0567 98.9993,215.1707 C101.6243,215.1997 102.4543,214.2957 102.4063,211.7067 C102.2713,204.3847 102.6973,197.0397 102.2883,189.7387 C101.6563,178.4737 110.9933,172.0997 118.6283,172.1647 C127.7753,172.2417 134.4113,179.6147 134.4803,189.7017 C134.5293,197.0277 134.5793,204.3537 134.4483,211.6757 C134.4043,214.2287 135.1573,215.2027 137.8233,215.1717 C147.9763,215.0527 158.1373,214.9357 168.2843,215.2107 C172.6933,215.3307 172.0543,212.6667 172.0973,210.0347 C172.1443,207.1547 172.5643,204.2367 168.0033,204.5977 C164.1983,204.8987 160.3153,204.3287 156.5313,204.7387 C151.7323,205.2577 150.2363,203.6717 150.4023,198.7827 C150.5403,194.6787 151.5433,193.1077 155.7483,193.5487 C159.0413,193.8957 162.4333,193.3197 165.7223,193.6887 C170.6973,194.2467 172.3023,192.6017 172.2313,187.4087 C172.0503,174.2817 171.6053,161.1357 172.4663,148.0087 L172.4663,148.0087 L177.540063,147.985919 L172.4663,148.0077 C172.4183,136.5192 172.348925,125.0307 172.310487,113.5422 L172.2843,102.0537 C172.2743,91.5197 171.1873,81.1167 168.4223,70.9467 C163.3923,52.4397 156.3313,34.9147 142.1073,21.3367 Z M53.4093,127.3837 C45.6303,132.2297 41.7103,138.3957 43.1653,147.4677 C43.7083,150.8587 43.1223,154.4307 43.0523,157.9207 C39.5633,157.9237 36.0733,157.9257 32.5843,157.9277 L32.5843,157.9277 L32.5843,147.6157 C28.5613,151.4077 25.5873,154.2107 22.6133,157.0137 C20.3303,159.4167 18.0483,161.8207 15.7673,164.2227 C12.7883,167.3597 11.0773,171.0047 11.0863,175.4127 C11.1103,186.5487 11.1053,197.6847 11.0702287,208.8207 C11.0563,213.1637 13.1043,215.1777 17.4843,215.1487 C28.1203,215.0737 38.7603,214.9937 49.3943,215.2027 C52.9143,215.2717 53.8993,214.1367 53.8553,210.6857 C53.6793,197.0587 53.7173,183.4277 53.8223,169.7997 C53.8613,164.8407 53.2513,159.8517 54.2473,154.9167 C53.6973,145.7957 54.6703,136.5977 53.4093,127.3837 Z M185.5983,128.6947 C184.8573,128.1167 184.3373,126.9007 183.1733,127.3757 C181.9863,127.8597 182.4433,129.1027 182.4463,130.0137 C182.4623,135.9977 182.5503,141.9807 182.6143,147.9647 C182.7653,149.7697 183.0423,151.5757 183.0463,153.3817 C183.0793,172.5257 183.1263,191.6707 183.0153,210.8147 C182.9973,213.9047 183.6453,215.2657 187.1043,215.2007 C197.7543,214.9987 208.4113,215.1757 219.0663,215.1037 C224.3613,215.0687 225.7253,213.6367 225.7603,208.0937 C225.8273,197.4397 225.7693,186.7847 225.7753,176.1297 C225.7773,172.9017 225.3233,169.7247 223.3123,167.1407 C217.9353,160.2337 211.2413,154.6287 204.4253,147.4597 L204.4253,147.4597 L204.4253,153.7007 C204.4253,169.5157 204.3093,185.3317 204.5073,201.1447 C204.5583,205.2737 202.0763,204.9217 199.6653,204.5817 C197.3703,204.2577 193.5193,206.6077 193.5543,201.4167 C193.6773,182.9447 193.7203,164.4707 193.7943,145.9977 C195.0353,138.3477 191.2393,133.0827 185.5983,128.6947 Z M195.091388,146.055428 L196.391644,146.137924 C197.69278,146.22634 198.9955,146.3257 200.2903,146.3617 C198.1323,146.3007 195.9523,146.0647 193.7943,145.9977 Z" id="Fill-3" fill="url(#linearGradient-3)" mask="url(#mask-2)"></path>
            </g>
        </g>
    </g>
</svg>