<?xml version="1.0" encoding="UTF-8"?>
<svg width="268px" height="177px" viewBox="0 0 268 177" version="1.1" xmlns="http://www.w3.org/2000/svg" xmlns:xlink="http://www.w3.org/1999/xlink">
    <!-- Generator: Sketch 59.1 (86144) - https://sketch.com -->
    <title>Group 2</title>
    <desc>Created with Sketch.</desc>
    <defs>
        <linearGradient x1="16.11856%" y1="69.5859143%" x2="100%" y2="28.2459077%" id="linearGradient-1">
            <stop stop-color="#FB8CFD" offset="0%"></stop>
            <stop stop-color="#C47BFF" offset="16.11856%"></stop>
            <stop stop-color="#8B77FF" offset="31.3766892%"></stop>
            <stop stop-color="#7EAAE0" offset="44.7925465%"></stop>
            <stop stop-color="#61FFFE" offset="70.0696791%"></stop>
            <stop stop-color="#99FF7F" offset="100%"></stop>
        </linearGradient>
    </defs>
    <g id="Hojas-Membretadas" stroke="none" stroke-width="1" fill="none" fill-rule="evenodd">
        <g id="Letter-Copy-5" transform="translate(-171.000000, -308.000000)">
            <g id="Group-2" transform="translate(171.000000, 308.000000)">
                <g id="Group" transform="translate(2.000000, 0.000000)" fill-rule="nonzero">
                    <path d="M4.55424023,133.415432 L11.4371191,133.415432 C13.1406745,133.387955 14.4183219,132.893382 15.2700996,131.931697 C16.108139,131.038705 16.5271523,129.939653 16.5271523,128.63451 C16.5012919,127.160466 16.0555866,126.069779 15.1900238,125.362422 L15.0228105,125.234285 C14.253463,124.616059 13.1406733,124.306951 11.6844082,124.306951 L4.55424023,124.306951 L4.55424023,133.415432 Z M-1.13686838e-13,120.247289 L11.725623,120.247289 C14.0944038,120.247289 16.0500932,120.839133 17.5927434,122.022837 L17.8460273,122.225602 C19.755658,123.723082 20.7516734,125.859363 20.8341035,128.63451 C20.7791501,132.7148 18.8420718,135.489905 15.0228105,136.959908 L21.9881191,150.29291 L16.5683672,150.29291 L10.3655332,137.454486 L4.55424023,137.454486 L4.55424023,150.29291 L-1.13686838e-13,150.29291 L-1.13686838e-13,120.247289 Z M38.6386705,120.247289 L57.8241803,120.247289 L57.8241803,124.55424 L43.1929107,124.55424 L43.1929107,133.126928 L55.6810084,133.126928 L55.6810084,137.165982 L43.1929107,137.165982 L43.1929107,145.985959 L57.8241803,145.985959 L57.8241803,150.29291 L38.6386705,150.29291 L38.6386705,120.247289 Z M75.0105246,120.247289 L85.5203097,120.247289 C89.4636325,120.273933 92.4509552,121.863672 94.4823613,125.016553 L94.6700051,125.316715 C95.3981376,126.44326 95.8583654,127.62474 96.0507023,128.861191 C96.1802353,129.921007 96.2542534,131.641922 96.2727578,134.023977 L96.277384,135.2701 C96.277384,138.498612 96.1606097,140.751667 95.9270578,142.029334 C95.817151,142.675036 95.6522933,143.252038 95.4324797,143.760357 C95.1989277,144.254938 94.9172958,144.770118 94.5875754,145.305914 C93.7759559,146.612114 92.6717009,147.70759 91.2747813,148.59237 L90.9194543,148.809176 C89.3670207,149.798337 87.4642878,150.29291 85.2111984,150.29291 L75.0105246,150.29291 L75.0105246,120.247289 Z M79.5647648,145.985959 L85.0051242,145.985959 C87.5604573,145.985959 89.4151067,145.113587 90.5691281,143.368816 C91.077447,142.723114 91.4002934,141.905694 91.5376769,140.916533 C91.6613221,139.94111 91.7231437,138.113937 91.7231437,135.434959 L91.7179919,134.19164 C91.7008192,132.222483 91.6407146,130.768527 91.5376769,129.82974 C91.3728167,128.703196 90.9812796,127.789609 90.3630539,127.088953 C89.0991257,125.344183 87.313167,124.499287 85.0051242,124.55424 L79.5647648,124.55424 L79.5647648,145.985959 Z M114.865033,142.997883 C117.255506,144.962467 120.099302,145.958482 123.396506,145.985959 C127.298197,145.931006 129.27649,144.536584 129.331443,141.802652 C129.35892,139.563301 128.053796,138.216963 125.416033,137.763598 L122.049876,137.294253 C121.848567,137.265655 121.644876,137.236637 121.438801,137.207197 C118.855991,136.781308 116.891436,135.826507 115.545078,134.342766 C114.157505,132.817809 113.463728,130.963159 113.463728,128.778762 C113.463728,126.154737 114.3361,124.039063 116.080871,122.431676 C117.770688,120.838027 120.167994,120.027477 123.272861,120 C127.009692,120.08243 130.258763,121.11966 133.020172,123.111721 L130.485459,126.862271 C128.232369,125.37853 125.752634,124.609194 123.046179,124.55424 C121.644868,124.55424 120.477126,124.904563 119.542918,125.605219 C118.567495,126.333351 118.066053,127.418665 118.038576,128.861191 C118.038576,129.726707 118.37516,130.509782 119.04834,131.210437 C119.721519,131.924832 120.799963,132.419405 122.283705,132.694172 L123.025573,132.811174 C123.744958,132.919264 124.624203,133.038253 125.663322,133.168143 C128.479684,133.552816 130.561013,134.56257 131.907371,136.197434 C133.239991,137.804821 133.906291,139.673208 133.906291,141.802652 C133.755169,147.545283 130.238204,150.457769 123.355291,150.540199 C118.904065,150.540199 115.077992,149.166385 111.876957,146.418715 L114.865033,142.997883 Z M151.607821,120.247289 L156.162061,120.247289 L156.162061,150.29291 L151.607821,150.29291 L151.607821,120.247289 Z M180.478573,124.306951 L172.256212,124.306951 L172.256212,120.247289 L193.275782,120.247289 L193.275782,124.306951 L185.053421,124.306951 L185.053421,150.29291 L180.478573,150.29291 L180.478573,124.306951 Z M209.390541,120.247289 L228.57605,120.247289 L228.57605,124.55424 L213.944781,124.55424 L213.944781,133.126928 L226.432878,133.126928 L226.432878,137.165982 L213.944781,137.165982 L213.944781,145.985959 L228.57605,145.985959 L228.57605,150.29291 L209.390541,150.29291 L209.390541,120.247289 Z M266.01949,141.885082 C265.36005,144.673967 264.103009,146.817118 262.248332,148.314598 C260.338701,149.798339 258.078777,150.540199 255.46849,150.540199 C253.105494,150.485246 251.13407,149.908244 249.55416,148.809176 C247.946773,147.751323 246.779031,146.528628 246.050899,145.141055 C245.831085,144.687689 245.631882,144.254938 245.453283,143.842787 C245.288423,143.416898 245.151042,142.881111 245.041135,142.235408 L244.991763,141.909982 C244.826473,140.689849 244.740073,138.617746 244.73256,135.693627 L244.736475,134.06372 C244.758236,131.23666 244.859789,129.303294 245.041135,128.263576 C245.260948,127.082078 245.597533,126.127277 246.050899,125.399145 C246.779031,124.011571 247.946773,122.775138 249.55416,121.689809 C251.13407,120.590741 253.105494,120.027477 255.46849,120 C258.367282,120.027477 260.730243,120.886111 262.557443,122.575928 C264.384644,124.279483 265.538648,126.388288 266.01949,128.902406 L261.197354,128.902406 C260.826418,127.693431 260.153249,126.663071 259.177826,125.811293 C258.161188,125.00073 256.924755,124.581717 255.46849,124.55424 C254.396899,124.581717 253.476443,124.794658 252.707096,125.19307 C251.92401,125.605221 251.292055,126.120401 250.811213,126.738627 C250.220464,127.384329 249.828927,128.215487 249.63659,129.232125 C249.426768,130.255008 249.31709,132.135332 249.307552,134.873149 L249.309596,136.051993 C249.326854,138.453021 249.426087,140.141864 249.607297,141.118562 L249.63659,141.266859 C249.828927,142.310974 250.220464,143.15587 250.811213,143.801572 C251.292055,144.419798 251.92401,144.92124 252.707096,145.305914 C253.476443,145.75928 254.396899,145.985959 255.46849,145.985959 C258.023823,145.985959 259.933425,144.619014 261.197354,141.885082 L266.01949,141.885082 Z" id="REDSITEC" fill="#FFFFFF"></path>
                    <g id="logo-blanco" transform="translate(91.000000, 0.000000)" fill="url(#linearGradient-1)">
                        <path d="M42,0.5 C65.1959595,0.5 84,19.3040405 84,42.5 C84,65.6959595 65.1959595,84.5 42,84.5 C18.8040405,84.5 0,65.6959595 0,42.5 C0,19.3040405 18.8040405,0.5 42,0.5 Z M30.31,70.718 L18.4554769,70.7185117 C24.0391345,75.3823483 31.0281497,78.4199537 38.6945569,79.1033623 L30.31,70.718 Z M65.5445231,70.7185117 L53.688,70.718 L45.3044429,79.1034515 C52.9712424,78.4202179 59.9606227,75.3825511 65.5445231,70.7185117 Z M48.119,70.718 L35.879,70.718 L42,76.8388731 L48.119,70.718 Z M17.718,58.126 L17.71875,66.78125 L26.373,66.781 L17.718,58.126 Z M52.057,18.218 L31.943,18.218 L17.718,32.443 L17.718,52.557 L31.942,66.781 L52.056,66.781 L66.281,52.557 L66.281,32.443 L52.057,18.218 Z M66.281,58.125 L57.625,66.781 L66.28125,66.78125 L66.281,58.125 Z M13.7814883,66.0445231 L13.781,54.189 L5.39663765,45.8054431 C6.08004632,53.4718503 9.11765172,60.4608655 13.7814883,66.0445231 Z M78.6034515,45.8044429 L70.218,54.188 L70.2185117,66.0445231 C74.8825511,60.4606227 77.9202179,53.4712424 78.6034515,45.8044429 Z M42,21.154214 L48.252,27.406 L57.09375,27.40625 L57.093,36.247 L63.345786,42.5 L57.093,48.751 L57.09375,57.59375 L48.251,57.593 L42,63.845786 L35.747,57.593 L26.90625,57.59375 L26.906,48.752 L20.654214,42.5 L26.906,36.248 L26.90625,27.40625 L35.748,27.406 L42,21.154214 Z M42.684,57.593 L41.316,57.593 L42,58.2773201 L42.684,57.593 Z M30.843,52.689 L30.84375,53.65625 L31.81,53.656 L30.843,52.689 Z M46.621,31.343 L37.379,31.343 L30.843,37.878 L30.843,47.12 L37.379,53.656 L46.621,53.656 L53.156,47.12 L53.156,37.878 L46.621,31.343 Z M53.156,52.688 L52.188,53.656 L53.15625,53.65625 L53.156,52.688 Z M13.781,36.38 L7.66112694,42.5 L13.781,48.62 L13.781,36.38 Z M70.218,36.38 L70.218,48.62 L76.3388731,42.5 L70.218,36.38 Z M26.906,41.815 L26.2226799,42.5 L26.906,43.183 L26.906,41.815 Z M57.093,41.815 L57.093,43.183 L57.7773201,42.5 L57.093,41.815 Z M5.39654851,39.1955571 L13.781,30.811 L13.7814883,18.9554769 C9.11744891,24.5393773 6.07978213,31.5287576 5.39654851,39.1955571 Z M70.2185117,18.9554769 L70.218,30.81 L78.6033623,39.1945569 C77.9199537,31.5281497 74.8823483,24.5391345 70.2185117,18.9554769 Z M31.811,31.343 L30.84375,31.34375 L30.843,32.311 L31.811,31.343 Z M53.15625,31.34375 L52.189,31.343 L53.156,32.31 L53.15625,31.34375 Z M42,26.7226799 L41.316,27.406 L42.684,27.406 L42,26.7226799 Z M26.374,18.218 L17.71875,18.21875 L17.718,26.874 L26.374,18.218 Z M66.28125,18.21875 L57.626,18.218 L66.281,26.873 L66.28125,18.21875 Z M18.4554769,14.2814883 L30.311,14.281 L38.6955571,5.89654851 C31.0287576,6.57978213 24.0393773,9.61744891 18.4554769,14.2814883 Z M42,8.16112694 L35.88,14.281 L48.12,14.281 L42,8.16112694 Z M45.3054431,5.89663765 L53.689,14.281 L65.5445231,14.2814883 C59.9608655,9.61765172 52.9718503,6.58004632 45.3054431,5.89663765 Z" id="Combined-Shape"></path>
                    </g>
                </g>
                <text id="Sustainable-Software-Copy" font-family="DINAlternate-Bold, DIN Alternate" font-size="14.068" font-weight="bold" letter-spacing="-0.2" fill="#FFFFFF">
                    <tspan x="0" y="174">Sustainable Software and Technology Solutions</tspan>
                </text>
            </g>
        </g>
    </g>
</svg>