<?xml version="1.0" encoding="UTF-8"?>
<svg width="63px" height="64px" viewBox="0 0 63 64" version="1.1" xmlns="http://www.w3.org/2000/svg" xmlns:xlink="http://www.w3.org/1999/xlink">
    <!-- Generator: Sketch 59.1 (86144) - https://sketch.com -->
    <title>logo blanco</title>
    <desc>Created with Sketch.</desc>
    <defs>
        <linearGradient x1="16.3827417%" y1="69.5859143%" x2="99.6101379%" y2="28.2459077%" id="linearGradient-1">
            <stop stop-color="#FB8CFD" offset="0%"></stop>
            <stop stop-color="#C47BFF" offset="16.11856%"></stop>
            <stop stop-color="#8B77FF" offset="31.3766892%"></stop>
            <stop stop-color="#7EAAE0" offset="44.7925465%"></stop>
            <stop stop-color="#61FFFE" offset="70.0696791%"></stop>
            <stop stop-color="#99FF7F" offset="100%"></stop>
        </linearGradient>
    </defs>
    <g id="Hojas-Membretadas" stroke="none" stroke-width="1" fill="none" fill-rule="evenodd">
        <g id="Artboard" transform="translate(-231.000000, -94.000000)" fill="url(#linearGradient-1)" fill-rule="nonzero">
            <g id="Group" transform="translate(163.000000, 94.000000)">
                <g id="logo-blanco" transform="translate(68.000000, 0.000000)">
                    <path d="M31.5,0.376470588 C48.8969696,0.376470588 63,14.534807 63,32 C63,49.465193 48.8969696,63.6235294 31.5,63.6235294 C14.1030304,63.6235294 0,49.465193 0,32 C0,14.534807 14.1030304,0.376470588 31.5,0.376470588 Z M49.1580385,53.2471761 L40.183,53.2464706 L33.8607976,59.570508 C39.6568306,59.0769168 44.9416541,56.7826679 49.1580385,53.2471761 Z M22.699,53.2464706 L13.8419615,53.2471761 C18.0270047,56.7563879 23.2646621,59.042741 29.0100382,59.5592029 L22.699,53.2464706 Z M36.007,53.2464706 L26.891,53.2464706 L31.4495017,57.8046531 L36.007,53.2464706 Z M13.289,43.8374706 L13.2890625,50.2823529 L19.734,50.2814706 L13.289,43.8374706 Z M39.073,13.7174706 L24.027,13.7174706 L13.289,24.4564706 L13.289,39.6444706 L23.926,50.2814706 L38.972,50.2814706 L49.71,39.5434706 L49.71,24.3554706 L39.073,13.7174706 Z M49.71,43.7194706 L43.148,50.2814706 L49.7109375,50.2823529 L49.71,43.7194706 Z M10.3357073,49.7271493 L10.335,40.8834706 L4.05828678,34.6076455 C4.59135949,40.3331543 6.86207994,45.5519349 10.3357073,49.7271493 Z M58.9534175,34.4786961 L52.664,40.7654706 L52.6642927,49.7271493 C56.1639804,45.5206111 58.4426442,40.2547895 58.9534175,34.4786961 Z M31.5313909,15.9592697 L36.207,20.6344706 L42.8203125,20.6352941 L42.82,27.2484706 L47.5407303,31.9686091 L42.82,36.6884706 L42.8203125,43.3647059 L36.144,43.3644706 L31.4686091,48.0407303 L26.792,43.3644706 L20.1796875,43.3647059 L20.179,36.7504706 L15.4592697,32.0313909 L20.179,27.3104706 L20.1796875,20.6352941 L26.855,20.6344706 L31.5313909,15.9592697 Z M31.967,43.3644706 L30.985,43.3644706 L31.4767981,43.856192 L31.967,43.3644706 Z M23.132,39.7034706 L23.1328125,40.4 L23.827,40.3994706 L23.132,39.7034706 Z M34.979,23.5994706 L28.067,23.5994706 L23.132,28.5334706 L23.132,35.5114706 L28.02,40.3994706 L34.932,40.3994706 L39.867,35.4654706 L39.867,28.4874706 L34.979,23.5994706 Z M39.867,39.6414706 L39.109,40.3994706 L39.8671875,40.4 L39.867,39.6414706 Z M10.335,27.4104706 L5.69534686,32.0504983 L10.335,36.6904706 L10.335,27.4104706 Z M52.664,27.3094706 L52.664,36.5894706 L57.3046531,31.9495017 L52.664,27.3094706 Z M20.179,31.4864706 L19.643808,32.0232019 L20.179,32.5584706 L20.179,31.4864706 Z M42.82,31.4404706 L42.82,32.5124706 L43.356192,31.9767981 L42.82,31.4404706 Z M4.04658255,29.5213039 L10.335,23.2334706 L10.3357073,14.2728507 C6.83601963,18.4793889 4.5573558,23.7452105 4.04658255,29.5213039 Z M52.6642927,14.2728507 L52.664,23.1154706 L58.9417132,29.3923545 C58.4086405,23.6668457 56.1379201,18.4480651 52.6642927,14.2728507 Z M23.89,23.5994706 L23.1328125,23.6 L23.132,24.3574706 L23.89,23.5994706 Z M39.8671875,23.6 L39.172,23.5994706 L39.867,24.2954706 L39.8671875,23.6 Z M31.5232019,20.143808 L31.032,20.6344706 L32.014,20.6344706 L31.5232019,20.143808 Z M19.851,13.7174706 L13.2890625,13.7176471 L13.289,20.2794706 L19.851,13.7174706 Z M49.7109375,13.7176471 L43.265,13.7174706 L49.71,20.1614706 L49.7109375,13.7176471 Z M13.8419615,10.7528239 L22.816,10.7524706 L29.1392024,4.42949197 C23.3431694,4.92308319 18.0583459,7.21733206 13.8419615,10.7528239 Z M31.5504983,6.19534686 L26.992,10.7524706 L36.108,10.7524706 L31.5504983,6.19534686 Z M33.9899618,4.4407971 L40.3,10.7524706 L49.1580385,10.7528239 C44.9729953,7.24361208 39.7353379,4.957259 33.9899618,4.4407971 Z" id="Combined-Shape"></path>
                </g>
            </g>
        </g>
    </g>
</svg>